<svg width="24" height="24" viewBox="0 0 24 24" fill="none" xmlns="http://www.w3.org/2000/svg"><g clip-path="url(#clip0_3444_48310)"><path d="M23.4414 12.2242C23.4414 11.2409 23.3616 10.5234 23.1889 9.7793H11.9609V14.2173H18.5515C18.4187 15.3202 17.7012 16.9811 16.1066 18.0972L16.0843 18.2458L19.6343 20.996L19.8803 21.0205C22.1391 18.9344 23.4414 15.8649 23.4414 12.2242Z" fill="#4285F4"></path><path d="M11.9566 23.9178C15.1855 23.9178 17.8961 22.8548 19.876 21.0211L16.1023 18.0978C15.0925 18.8021 13.7371 19.2937 11.9566 19.2937C8.79423 19.2937 6.11017 17.2076 5.15338 14.3242L5.01313 14.3361L1.32171 17.193L1.27344 17.3271C3.23997 21.2337 7.27939 23.9178 11.9566 23.9178Z" fill="#17A539"></path><path d="M5.15551 14.3238C4.90305 13.5797 4.75695 12.7824 4.75695 11.9586C4.75695 11.1347 4.90305 10.3375 5.14223 9.59342L5.13554 9.43494L1.39786 6.53223L1.27557 6.59039C0.465069 8.21149 0 10.0319 0 11.9586C0 13.8853 0.465069 15.7056 1.27557 17.3267L5.15551 14.3238Z" fill="#FF7A00"></path><path d="M11.9566 4.62403C14.2022 4.62403 15.7169 5.59402 16.5807 6.40461L19.9557 3.10928C17.8829 1.1826 15.1855 0 11.9566 0C7.27939 0 3.23997 2.68406 1.27344 6.59056L5.14009 9.59359C6.11017 6.7102 8.79423 4.62403 11.9566 4.62403Z" fill="#EB4335"></path></g><defs><clipPath id="clip0_3444_48310"><rect width="24" height="24" fill="white"></rect></clipPath></defs></svg>
